<svg class="ConsumerNavIcon_icon__GbJz7" width="18" height="18" viewBox="0 0 18 18" fill="none" xmlns="http://www.w3.org/2000/svg"><path fill-rule="evenodd" clip-rule="evenodd" d="M0.983887 3C0.983887 1.8868 1.88631 0.984375 2.99951 0.984375C4.11271 0.984375 5.01514 1.8868 5.01514 3C5.01514 4.1132 4.11271 5.01562 2.99951 5.01562C1.88631 5.01562 0.983887 4.1132 0.983887 3ZM0.983887 9C0.983887 7.8868 1.88631 6.98438 2.99951 6.98438C4.11271 6.98438 5.01514 7.8868 5.01514 9C5.01514 10.1132 4.11271 11.0156 2.99951 11.0156C1.88631 11.0156 0.983887 10.1132 0.983887 9ZM2.99951 12.9844C1.88631 12.9844 0.983887 13.8868 0.983887 15C0.983887 16.1132 1.88631 17.0156 2.99951 17.0156C4.11271 17.0156 5.01514 16.1132 5.01514 15C5.01514 13.8868 4.11271 12.9844 2.99951 12.9844ZM6.98389 3C6.98389 1.8868 7.88631 0.984375 8.99951 0.984375C10.1127 0.984375 11.0151 1.8868 11.0151 3C11.0151 4.1132 10.1127 5.01562 8.99951 5.01562C7.88631 5.01562 6.98389 4.1132 6.98389 3ZM8.99951 6.98438C7.88631 6.98438 6.98389 7.8868 6.98389 9C6.98389 10.1132 7.88631 11.0156 8.99951 11.0156C10.1127 11.0156 11.0151 10.1132 11.0151 9C11.0151 7.8868 10.1127 6.98438 8.99951 6.98438ZM6.98389 15C6.98389 13.8868 7.88631 12.9844 8.99951 12.9844C10.1127 12.9844 11.0151 13.8868 11.0151 15C11.0151 16.1132 10.1127 17.0156 8.99951 17.0156C7.88631 17.0156 6.98389 16.1132 6.98389 15ZM15.0002 0.984375C13.887 0.984375 12.9846 1.8868 12.9846 3C12.9846 4.1132 13.887 5.01562 15.0002 5.01562C16.1134 5.01562 17.0159 4.1132 17.0159 3C17.0159 1.8868 16.1134 0.984375 15.0002 0.984375ZM12.9846 9C12.9846 7.8868 13.887 6.98438 15.0002 6.98438C16.1134 6.98438 17.0159 7.8868 17.0159 9C17.0159 10.1132 16.1134 11.0156 15.0002 11.0156C13.887 11.0156 12.9846 10.1132 12.9846 9ZM15.0002 12.9844C13.887 12.9844 12.9846 13.8868 12.9846 15C12.9846 16.1132 13.887 17.0156 15.0002 17.0156C16.1134 17.0156 17.0159 16.1132 17.0159 15C17.0159 13.8868 16.1134 12.9844 15.0002 12.9844Z" class="ConsumerNavIcon_aa__CTXbc"></path></svg>